<svg width="281" height="80" viewBox="0 0 281 80" fill="none" xmlns="http://www.w3.org/2000/svg">
<g clip-path="url(#clip0_38_3896)">
<path d="M73.7356 32.7618C73.7485 32.955 73.773 33.1526 73.8069 33.3434C74.2871 36.0281 73.6848 38.9694 72.0436 41.1865C71.249 42.2678 70.4572 43.3468 69.6952 44.4515C68.1378 46.6453 65.7097 48.0182 63.0122 48.1866C62.8637 48.1955 62.7153 48.2119 62.5668 48.2324C60.0357 48.583 57.6561 52.0955 58.7119 54.6724C59.7534 57.2128 61.309 58.9239 65.859 58.1119C66.0057 58.0857 66.1533 58.1208 66.2951 58.1164C69.1481 58.0239 71.9753 59.0368 74.2573 60.7111C75.4267 61.5875 76.582 62.483 77.726 63.3942C79.8853 65.1497 81.725 67.4537 82.6457 70.0924C82.7001 70.2502 82.7647 70.4097 82.8383 70.5706C83.4545 71.9195 84.5468 73.0355 85.7466 73.8879C86.8715 74.687 88.2359 75.3568 89.6296 75.4382C92.4225 75.6008 93.765 72.8844 93.2888 70.4693C92.6815 67.3888 89.548 65.2288 86.4292 65.3373C86.3927 65.3386 86.3552 65.3404 86.3187 65.3422C83.6769 65.4768 81.1266 64.4337 79.0583 62.8471C77.4309 61.5711 75.8374 60.2564 74.177 59.023C72.1229 57.4786 70.2566 55.4364 69.5396 52.9186C69.5369 52.9079 69.5338 52.8982 69.5302 52.887C69.5267 52.8764 69.524 52.8657 69.5204 52.8555C68.8343 50.5235 69.2792 48.1382 70.6266 46.1004C71.6882 44.5386 72.7186 42.9579 73.8462 41.4433C75.4383 39.2899 77.8874 37.891 80.4801 37.3699C80.5198 37.3618 80.5604 37.3534 80.6014 37.3451C83.9235 36.637 86.538 33.5251 86.0257 30.0649C85.5429 26.8022 82.3585 24.687 79.1497 25.4526C75.9595 26.2126 73.5113 29.4955 73.7356 32.7618Z" fill="url(#paint0_linear_38_3896)"/>
<path d="M99.3082 22.1958C99.1027 22.2098 98.8931 22.235 98.6907 22.2705C95.8684 22.7589 92.6756 22.2423 90.3437 20.4933C89.2541 19.6815 88.1733 18.8586 87.0832 18.0486C84.9783 16.4451 83.6532 14.048 83.5916 11.3914C83.5881 11.2471 83.5791 11.1012 83.5635 10.958C83.379 9.23115 81.9161 7.54635 80.1072 7.27057C76.8676 7.01697 75.5581 7.84555 74.32 9.3615C73.6004 10.2431 73.5812 11.882 73.4546 13.0156C73.3382 14.0524 73.6592 14.9783 73.5183 16.0339C73.2129 18.3164 72.2998 20.5412 71.034 22.4603C70.2283 23.6829 69.4084 24.8964 68.5728 26.0986C66.9579 28.3743 64.6149 30.2183 61.9411 31.0848C61.7797 31.1371 61.6232 31.2192 61.4502 31.2707C57.8388 32.3476 55.6153 35.4427 56.1026 38.0957C56.0321 39.2359 56.8195 40.2456 57.7639 40.9283C58.8214 41.6921 60.1934 41.7735 61.4177 41.5046C64.3991 40.8499 66.6579 37.9082 66.6057 34.8462C66.6048 34.8106 66.6039 34.7759 66.6035 34.7411C66.5085 32.1587 67.6209 29.6547 69.0825 27.5766C70.2836 25.8939 71.3911 24.1523 72.5392 22.4347C73.9905 20.3111 76.0414 18.5169 78.5637 17.8119C78.5748 17.8092 78.5855 17.8057 78.5958 17.8032C78.6065 17.8006 78.6176 17.7971 78.6274 17.7937C80.9878 17.1323 83.4021 17.5708 85.4174 18.9891C86.9565 20.1067 88.4667 21.2648 90.0138 22.3716C92.1633 23.8954 93.6542 26.2395 94.1385 28.7971C94.1451 28.8353 94.1523 28.8734 94.1607 28.9122C94.8585 32.3389 98.3804 34.4343 101.76 33.9638C104.929 33.522 107.458 30.7591 106.678 27.4868C105.92 24.2975 102.552 21.9748 99.3082 22.1958Z" fill="url(#paint1_linear_38_3896)"/>
<path d="M115.639 62.9437C116.273 59.9677 118.421 56.9934 121.058 55.4565C121.56 55.1641 122.833 54.3859 123.44 54.8939C124.003 55.3645 123.291 56.5161 123.051 56.9659C122.341 58.2925 121.427 59.5388 120.539 60.765C119.65 61.9921 118.753 63.2543 117.714 64.3454C117.357 64.7196 116.49 65.7436 115.86 65.3503C115.188 64.9308 115.517 63.5174 115.639 62.9437Z" fill="url(#paint2_linear_38_3896)"/>
<path d="M67.5961 65.947C67.2354 65.607 66.1832 64.7315 66.5684 64.1124C66.9861 63.4422 68.4325 63.7853 69.0095 63.9084C72.0034 64.5471 74.9809 66.7044 76.536 69.3293C76.8321 69.8293 77.5972 71.0555 77.0875 71.6502C76.6114 72.2062 75.4499 71.4982 75.0058 71.2622C73.6731 70.5555 72.4198 69.6444 71.1875 68.7613C69.9547 67.8777 68.6916 66.9822 67.5961 65.947Z" fill="url(#paint3_linear_38_3896)"/>
<path d="M107.153 11.0459C106.86 10.5526 106.103 9.3327 106.611 8.73834C107.09 8.17759 108.239 8.87683 108.696 9.1195C110.029 9.82652 111.28 10.7387 112.512 11.6218C113.745 12.5055 115.009 13.3989 116.106 14.4347C116.468 14.7763 117.517 15.6506 117.116 16.2599C116.682 16.9172 115.223 16.5551 114.655 16.4282C111.69 15.7691 108.706 13.6529 107.153 11.0459Z" fill="url(#paint4_linear_38_3896)"/>
<path d="M60.6508 23.4153C61.3615 22.0869 62.276 20.8379 63.1642 19.6098C64.051 18.3837 64.9494 17.126 65.9878 16.0358C66.3351 15.6717 67.2094 14.6333 67.8408 14.9978C68.5114 15.3855 68.1765 16.7727 68.0548 17.3279C67.407 20.294 65.2601 23.2551 62.6572 24.8298C62.1525 25.1348 60.8943 25.9422 60.2723 25.4593C59.6976 25.0125 60.4226 23.8405 60.6508 23.4153Z" fill="url(#paint5_linear_38_3896)"/>
<path d="M97.2053 14.8113C97.2463 14.8098 97.2864 14.8086 97.3274 14.8064C100.138 14.6678 102.881 15.8112 105.085 17.4902C106.394 18.5082 107.689 19.545 109.032 20.519C111.246 22.1448 113.253 24.2973 114.045 26.9796C114.048 26.9903 114.051 27.0021 114.054 27.0129C114.065 27.0494 114.077 27.0869 114.088 27.1234C114.866 29.6143 114.41 32.1882 112.834 34.2952C112.043 35.3235 111.232 36.3385 110.496 37.4077C108.809 39.867 106.096 41.4035 103.185 41.8558C103.137 41.8636 103.088 41.8706 103.04 41.8793C99.534 42.4803 96.9823 45.8053 97.4906 49.343C97.9726 52.691 101.104 55.2617 104.53 54.4635C107.85 53.6902 110.224 50.1733 109.919 46.8297C109.915 46.783 109.91 46.7377 109.905 46.6924C109.58 43.8767 110.179 40.7921 111.854 38.4613C112.636 37.3831 113.424 36.3124 114.246 35.2642C115.907 33.2036 118.331 31.9998 120.973 31.8232C121.008 31.8209 121.044 31.8186 121.079 31.8155C122.338 31.698 123.62 31.1843 124.392 30.1249C125.088 29.1714 125.353 26.865 124.95 25.7788C123.589 22.107 121.309 22.0697 117.779 22.1259C117.709 22.1267 117.639 22.1161 117.571 22.1132C114.622 21.9889 111.745 20.9319 109.364 19.203C108.272 18.3959 107.19 17.5758 106.117 16.7457C103.896 14.9969 101.971 12.6892 100.936 10.0463C100.901 9.95686 100.862 9.86637 100.821 9.7762C99.7124 7.33442 96.7982 5.09095 94.0718 4.94277C91.3239 4.79286 89.911 7.36642 90.3925 9.80153C90.9904 12.8293 94.169 14.8983 97.2053 14.8113Z" fill="url(#paint6_linear_38_3896)"/>
<path d="M84.2423 57.6272C84.4492 57.6112 84.6609 57.5836 84.8656 57.5445C87.7704 56.9876 90.9444 57.6467 93.2919 59.4743C94.3807 60.3169 95.4539 61.1787 96.54 62.0249C98.6632 63.7152 99.9901 66.1427 100.076 68.8649C100.081 69.0125 100.089 69.1623 100.107 69.3085C100.405 71.7987 104.087 73.5218 106.712 72.4743C108.029 71.9485 108.106 71.9645 109.167 70.4743C110.025 69.2694 109.926 67.5272 110.062 66.0436C110.075 65.8974 110.083 65.7538 110.085 65.6147C110.122 62.8129 111.151 59.9894 112.658 57.6458C113.456 56.4316 114.269 55.2285 115.101 54.0374C116.735 51.7507 119.057 49.9338 121.774 49.1316C121.937 49.0836 122.092 48.9894 122.268 48.9592C125.778 48.3689 127.104 45.1396 127.246 42.4011C127.392 39.5983 124.754 38.1633 122.251 38.5599C119.185 39.0459 116.992 42.0137 117.057 45.0769C117.058 45.1138 117.059 45.1489 117.061 45.1854C117.158 47.8232 116.066 50.3503 114.59 52.4907C113.408 54.1832 112.303 55.9227 111.174 57.6507C109.739 59.7961 107.667 61.6449 105.125 62.3392C105.114 62.3418 105.104 62.3454 105.092 62.3481C105.082 62.3516 105.071 62.3543 105.06 62.3574C102.67 63.0325 100.221 62.5627 98.1986 61.0934C96.635 59.9205 95.1235 58.6885 93.5937 57.4734C91.4171 55.7445 89.8962 53.2805 89.3808 50.5712C89.3737 50.5312 89.3657 50.4898 89.3576 50.4498C88.6514 46.9729 85.2094 44.6685 81.7094 45.2365C78.4171 45.7703 76.042 48.8023 76.812 52.1241C77.562 55.3698 80.8934 57.8876 84.2423 57.6272Z" fill="url(#paint7_linear_38_3896)"/>
<path d="M6.1764 61.3569V31.5029L11.0756 36.1405H0.355469V27.5417H17.6242V61.3569H6.1764Z" fill="url(#paint8_linear_38_3896)"/>
<path d="M34.3577 54.1107L33.7271 41.5992L46.5331 27.5417H58.9993L44.6413 43.29L38.2868 49.7632L34.3577 54.1107ZM24.1226 61.3569V27.5417H35.3763V61.3569H24.1226ZM46.4359 61.3569L36.4435 48.2174L43.8651 40.3915L59.6788 61.3569H46.4359Z" fill="url(#paint9_linear_38_3896)"/>
<path d="M128.588 61.3569V27.5417H137.999L155.268 48.1209H150.902V27.5417H162.059V61.3569H152.648L135.38 40.778H139.745V61.3569H128.588Z" fill="url(#paint10_linear_38_3896)"/>
<path d="M186.347 62.1298C183.598 62.1298 181.044 61.6952 178.683 60.8258C176.355 59.956 174.333 58.7325 172.619 57.1543C170.905 55.544 169.563 53.66 168.593 51.5023C167.656 49.3445 167.187 46.9934 167.187 44.4494C167.187 41.873 167.656 39.522 168.593 37.3965C169.563 35.2388 170.905 33.3708 172.619 31.7928C174.333 30.1825 176.355 28.9427 178.683 28.0731C181.044 27.2036 183.598 26.7688 186.347 26.7688C189.128 26.7688 191.683 27.2036 194.011 28.0731C196.34 28.9427 198.361 30.1825 200.075 31.7928C201.789 33.3708 203.114 35.2388 204.052 37.3965C205.023 39.522 205.508 41.873 205.508 44.4494C205.508 46.9934 205.023 49.3445 204.052 51.5023C203.114 53.66 201.789 55.544 200.075 57.1543C198.361 58.7325 196.34 59.956 194.011 60.8258C191.683 61.6952 189.128 62.1298 186.347 62.1298ZM186.347 52.9032C187.414 52.9032 188.401 52.7098 189.306 52.3236C190.244 51.9369 191.053 51.3894 191.732 50.6809C192.443 49.9405 192.992 49.0547 193.381 48.024C193.769 46.9614 193.963 45.7698 193.963 44.4494C193.963 43.129 193.769 41.9535 193.381 40.9229C192.992 39.8602 192.443 38.9745 191.732 38.266C191.053 37.5253 190.244 36.9617 189.306 36.5752C188.401 36.1888 187.414 35.9956 186.347 35.9956C185.28 35.9956 184.278 36.1888 183.34 36.5752C182.434 36.9617 181.626 37.5253 180.914 38.266C180.235 38.9745 179.701 39.8602 179.313 40.9229C178.926 41.9535 178.732 43.129 178.732 44.4494C178.732 45.7698 178.926 46.9614 179.313 48.024C179.701 49.0547 180.235 49.9405 180.914 50.6809C181.626 51.3894 182.434 51.9369 183.34 52.3236C184.278 52.7098 185.28 52.9032 186.347 52.9032Z" fill="url(#paint11_linear_38_3896)"/>
<path d="M210.633 61.3569V27.5417H227.368C231.151 27.5417 234.482 28.2341 237.36 29.619C240.238 30.9716 242.486 32.9039 244.103 35.4159C245.72 37.9279 246.528 40.9229 246.528 44.4011C246.528 47.9116 245.72 50.9387 244.103 53.4827C242.486 55.9947 240.238 57.9432 237.36 59.3281C234.482 60.681 231.151 61.3569 227.368 61.3569H210.633ZM222.08 52.4685H226.883C228.5 52.4685 229.906 52.1627 231.103 51.5507C232.332 50.9387 233.286 50.0369 233.965 48.8454C234.644 47.6214 234.983 46.1401 234.983 44.4011C234.983 42.6942 234.644 41.245 233.965 40.0534C233.286 38.8618 232.332 37.9601 231.103 37.3482C229.906 36.7363 228.5 36.4303 226.883 36.4303H222.08V52.4685Z" fill="url(#paint12_linear_38_3896)"/>
<path d="M262.156 40.1017H277.29V48.3138H262.156V40.1017ZM262.932 52.7583H279.91V61.3569H251.678V27.5417H279.279V36.1405H262.932V52.7583Z" fill="url(#paint13_linear_38_3896)"/>
</g>
<defs>
<linearGradient id="paint0_linear_38_3896" x1="70.3841" y1="27.0164" x2="78.4832" y2="77.0263" gradientUnits="userSpaceOnUse">
<stop stop-color="#8245EA"/>
<stop offset="1" stop-color="#47AAEC"/>
</linearGradient>
<linearGradient id="paint1_linear_38_3896" x1="77.6051" y1="7.4307" x2="82.5404" y2="37.9041" gradientUnits="userSpaceOnUse">
<stop stop-color="#41B2EA"/>
<stop offset="0.0001" stop-color="#17E7DC"/>
<stop offset="1" stop-color="#6186FE"/>
</linearGradient>
<linearGradient id="paint2_linear_38_3896" x1="118.882" y1="55.3912" x2="120.391" y2="64.7065" gradientUnits="userSpaceOnUse">
<stop stop-color="#8245EA"/>
<stop offset="1" stop-color="#47AAEC"/>
</linearGradient>
<linearGradient id="paint3_linear_38_3896" x1="71.1879" y1="63.1275" x2="72.6963" y2="72.4415" gradientUnits="userSpaceOnUse">
<stop stop-color="#26CED9"/>
<stop offset="1" stop-color="#6195F8"/>
</linearGradient>
<linearGradient id="paint4_linear_38_3896" x1="116.117" y1="7.76879" x2="102.374" y2="23.1983" gradientUnits="userSpaceOnUse">
<stop offset="0.1832" stop-color="#8C0FE0"/>
<stop offset="0.3873" stop-color="#6235EC"/>
<stop offset="0.6108" stop-color="#3062FB"/>
<stop offset="0.6811" stop-color="#3166FB"/>
<stop offset="0.7505" stop-color="#3272F9"/>
<stop offset="0.8195" stop-color="#3586F8"/>
<stop offset="0.8883" stop-color="#38A1F5"/>
<stop offset="0.9563" stop-color="#3DC5F1"/>
<stop offset="0.9973" stop-color="#40DEEF"/>
</linearGradient>
<linearGradient id="paint5_linear_38_3896" x1="63.4357" y1="15.6089" x2="64.9391" y2="24.893" gradientUnits="userSpaceOnUse">
<stop stop-color="#41B2EA"/>
<stop offset="0.0001" stop-color="#17E7DC"/>
<stop offset="1" stop-color="#6186FE"/>
</linearGradient>
<linearGradient id="paint6_linear_38_3896" x1="105.533" y1="3.15188" x2="113.559" y2="52.7062" gradientUnits="userSpaceOnUse">
<stop stop-color="#8245EA"/>
<stop offset="1" stop-color="#47AAEC"/>
</linearGradient>
<linearGradient id="paint7_linear_38_3896" x1="101.587" y1="42.0037" x2="106.513" y2="72.4197" gradientUnits="userSpaceOnUse">
<stop stop-color="#41B2EA"/>
<stop offset="0.0001" stop-color="#17E7DC"/>
<stop offset="1" stop-color="#6186FE"/>
</linearGradient>
<linearGradient id="paint8_linear_38_3896" x1="30.4452" y1="27.6463" x2="30.4452" y2="61.1538" gradientUnits="userSpaceOnUse">
<stop stop-color="#26CED9"/>
<stop offset="1" stop-color="#6195F8"/>
</linearGradient>
<linearGradient id="paint9_linear_38_3896" x1="30.4451" y1="27.6463" x2="30.4451" y2="61.1538" gradientUnits="userSpaceOnUse">
<stop stop-color="#26CED9"/>
<stop offset="1" stop-color="#6195F8"/>
</linearGradient>
<linearGradient id="paint10_linear_38_3896" x1="205.341" y1="26.8781" x2="205.341" y2="61.9174" gradientUnits="userSpaceOnUse">
<stop stop-color="#26CED9"/>
<stop offset="1" stop-color="#6195F8"/>
</linearGradient>
<linearGradient id="paint11_linear_38_3896" x1="205.341" y1="26.8781" x2="205.341" y2="61.9174" gradientUnits="userSpaceOnUse">
<stop stop-color="#26CED9"/>
<stop offset="1" stop-color="#6195F8"/>
</linearGradient>
<linearGradient id="paint12_linear_38_3896" x1="205.341" y1="26.8781" x2="205.341" y2="61.9174" gradientUnits="userSpaceOnUse">
<stop stop-color="#26CED9"/>
<stop offset="1" stop-color="#6195F8"/>
</linearGradient>
<linearGradient id="paint13_linear_38_3896" x1="205.341" y1="26.8781" x2="205.341" y2="61.9174" gradientUnits="userSpaceOnUse">
<stop stop-color="#26CED9"/>
<stop offset="1" stop-color="#6195F8"/>
</linearGradient>
<clipPath id="clip0_38_3896">
<rect width="280" height="80" fill="white" transform="translate(0.0581055)"/>
</clipPath>
</defs>
</svg>
