<svg aria-hidden="true" style="position: absolute; width: 0; height: 0; overflow: hidden;" version="1.1" xmlns="http://www.w3.org/2000/svg" xmlns:xlink="http://www.w3.org/1999/xlink">
    <defs>
    <!-- icon close-header -->
        <symbol id="icon-close-header" viewBox="0 0 16 16" fill="none">
            <path d="M1 1L15 15M1.00003 15L8.00003 8L15 1" stroke-width="1.5" stroke-linecap="round"/>
        </symbol>
    <!-- icon burger-menu -->
        <symbol id="icon-burger-menu" viewBox="0 0 40 41" >
            <rect x="8.60254" y="14" width="22" height="2"/>
            <rect x="8.60254" y="21" width="22" height="2"/>
            <rect x="8.60254" y="28" width="22" height="2"/>
        </symbol>
   
    <!-- icon close -->
        <symbol id="icon-close" viewBox="0 0 24 25 " fill="none">
            <rect x="4" y="19.9023" width="21" height="1" rx="0.5" transform="rotate(-45 4 19.9023)" fill="#475467"/>
            <rect x="18.8496" y="20.3164" width="21" height="1" rx="0.5" transform="rotate(-135 18.8496 20.3164)" fill="#475467"/>
        </symbol>
    <!-- icon twitter -->
        <symbol id="icon-twitter" viewBox="0 0 20 20" fill="none">
            <g clip-path="url(#clip0_38_3919)">
            <path d="M18.2555 4.55354C17.757 5.2827 17.1544 5.90398 16.4475 6.41738C16.455 6.52154 16.4587 6.67779 16.4587 6.88613C16.4587 7.85339 16.3173 8.81879 16.0346 9.78233C15.7518 10.7459 15.3221 11.6704 14.7455 12.5558C14.1689 13.4412 13.4825 14.2243 12.6863 14.9051C11.8902 15.5859 10.9304 16.1291 9.80688 16.5346C8.68337 16.9401 7.48174 17.1428 6.20197 17.1428C4.18561 17.1428 2.34037 16.6034 0.66626 15.5245C0.926676 15.5543 1.21686 15.5692 1.5368 15.5692C3.2109 15.5692 4.70272 15.0558 6.01224 14.029C5.23099 14.0141 4.53159 13.7741 3.91403 13.3091C3.29647 12.8441 2.87236 12.2507 2.64171 11.529C2.88724 11.5662 3.11418 11.5848 3.32251 11.5848C3.64245 11.5848 3.95867 11.5439 4.27117 11.462C3.43784 11.2909 2.74773 10.8761 2.20086 10.2176C1.65398 9.55912 1.38055 8.79461 1.38055 7.92407V7.87943C1.8865 8.16217 2.42965 8.3147 3.01001 8.33702C2.51894 8.00964 2.12831 7.58181 1.83813 7.05354C1.54796 6.52526 1.40287 5.95235 1.40287 5.33479C1.40287 4.68002 1.56656 4.07363 1.89394 3.51559C2.79424 4.62422 3.88985 5.5115 5.18077 6.17742C6.47169 6.84334 7.85376 7.21351 9.32697 7.28791C9.26745 7.00517 9.23769 6.72988 9.23769 6.46202C9.23769 5.46499 9.58925 4.61492 10.2924 3.9118C10.9955 3.20867 11.8456 2.85711 12.8426 2.85711C13.8843 2.85711 14.7622 3.23657 15.4765 3.9955C16.2875 3.83925 17.0502 3.54907 17.7645 3.12496C17.4892 3.98062 16.9609 4.64282 16.1797 5.11157C16.8716 5.03717 17.5636 4.85116 18.2555 4.55354Z" fill="white"/>
            </g>
            <defs>
            <clipPath id="clip0_38_3919">
            <rect width="18.58" height="20" transform="matrix(1 0 0 -1 0.661865 20)"/>
            </clipPath>
            </defs>
        </symbol>
    <!-- icon telegram-->
        <symbol id="icon-telegram" viewBox="0 0 24 24" fill="none">
            <path d="M19.8155 4.02666L2.74784 10.6083C1.58304 11.0761 1.58978 11.7259 2.53413 12.0156L6.91609 13.3826L17.0547 6.98583C17.534 6.69415 17.9721 6.85106 17.612 7.17066L9.39778 14.584H9.39586L9.39778 14.5849L9.09551 19.1017C9.53833 19.1017 9.73374 18.8985 9.98211 18.6588L12.1105 16.5892L16.5377 19.8593C17.354 20.3088 17.9403 20.0778 18.1434 19.1036L21.0496 5.40709C21.3471 4.21438 20.5943 3.67433 19.8155 4.02666Z" fill="white"/>
        </symbol>
    <!-- icon  email-->
        <symbol id="icon-email" viewBox="0 0 24 24" fill="none">
            <path d="M5.55334 19.4087C5.044 19.4087 4.60812 19.2275 4.24571 18.8651C3.8833 18.5027 3.70179 18.0665 3.70117 17.5565V6.44348C3.70117 5.93413 3.88268 5.49826 4.24571 5.13585C4.60874 4.77344 5.04461 4.59193 5.55334 4.59131H20.3707C20.8801 4.59131 21.3163 4.77282 21.6793 5.13585C22.0423 5.49887 22.2235 5.93475 22.2229 6.44348V17.5565C22.2229 18.0659 22.0417 18.502 21.6793 18.8651C21.3169 19.2281 20.8807 19.4093 20.3707 19.4087H5.55334ZM12.962 12.9261L20.3707 8.29565V6.44348L12.962 11.0739L5.55334 6.44348V8.29565L12.962 12.9261Z" fill="white"/>
        </symbol>
    <!-- icon hero card-->
        <symbol id="icon-hero-card-first" viewBox="0 0 60 60" fill="none">
            <path d="M17.0018 6.23403C19.29 4.45187 22.2823 3.46729 25.2553 3.46729C27.0347 3.46729 28.4731 4.07784 29.5649 5.04867C29.8592 5.30995 30.1205 5.59322 30.3542 5.88475C30.588 5.59322 30.8493 5.30995 31.1436 5.04867C32.2354 4.07784 33.6738 3.46729 35.4532 3.46729C38.4262 3.46729 41.4212 4.45187 43.7039 6.23403C45.4861 7.6174 46.8804 9.52881 47.4277 11.8363C48.5828 12.0288 49.6087 12.6173 50.4392 13.3956C51.7593 14.636 52.7027 16.4292 53.294 18.2746C53.8963 20.1475 54.1961 22.2514 54.1053 24.2728C54.0585 25.3069 53.9073 26.363 53.6185 27.3724L53.7973 27.4549C54.8149 27.9334 55.6399 28.6842 56.2587 29.6826C57.4276 31.5665 57.8401 34.2782 57.8401 37.7353C57.8401 41.7094 56.3192 44.4073 54.3666 46.0822C53.3495 46.9545 52.1591 47.6013 50.8738 47.9799C50.4074 50.1291 49.4491 52.1409 48.074 53.8572C46.0856 56.3434 42.9943 58.4446 38.8415 58.4446C35.5137 58.4446 32.8927 56.6019 31.2096 54.8418C30.9111 54.5272 30.6266 54.1996 30.357 53.8599C30.0864 54.1987 29.801 54.5254 29.5017 54.839C27.8185 56.6047 25.1975 58.4446 21.8697 58.4446C17.7141 58.4446 14.6229 56.3434 12.6372 53.8572C11.2601 52.1414 10.2998 50.1296 9.83195 47.9799C8.5476 47.601 7.35812 46.9543 6.3419 46.0822C4.38923 44.4046 2.87109 41.7094 2.87109 37.7353C2.87109 34.2782 3.28363 31.5665 4.44973 29.6826C5.06841 28.6569 5.99124 27.8494 7.08996 27.3724C6.8074 26.3617 6.64402 25.3215 6.60317 24.2728C6.51241 22.2514 6.81219 20.1475 7.41449 18.2746C8.00579 16.4319 8.94637 14.636 10.2692 13.3956C11.0966 12.5892 12.1447 12.0465 13.2807 11.8363C13.8308 9.52606 15.2224 7.6174 17.0018 6.23403ZM19.5375 9.48756C18.0359 10.6564 17.1558 12.213 17.1558 14.0062C17.1556 14.3329 17.0778 14.6548 16.9288 14.9455C16.7798 15.2362 16.5638 15.4873 16.2988 15.6783C16.0337 15.8692 15.7271 15.9945 15.4042 16.0437C15.0813 16.093 14.7513 16.0648 14.4414 15.9616C14.0646 15.8351 13.6658 15.8654 13.0937 16.4044C12.4557 17.0012 11.8094 18.0821 11.3418 19.5342C10.8741 21.0052 10.6657 22.5462 10.7258 24.0886C10.7945 25.6177 11.1576 26.8883 11.7296 27.7464C11.8243 27.8886 11.9009 28.0419 11.9579 28.2029H14.9336C16.9137 28.2025 18.8206 28.9515 20.271 30.2994C21.7215 31.6473 22.6081 33.4943 22.7526 35.4691C23.9373 35.9418 24.921 36.8116 25.5351 37.9296C26.1492 39.0477 26.3557 40.3444 26.1192 41.5978C25.8826 42.8513 25.2178 43.9836 24.2384 44.8009C23.2591 45.6182 22.0261 46.0698 20.7506 46.0782C19.475 46.0867 18.2362 45.6516 17.2461 44.8473C16.256 44.0431 15.5762 42.9197 15.323 41.6695C15.0699 40.4193 15.2591 39.1199 15.8583 37.9939C16.4576 36.8678 17.4296 35.985 18.608 35.4966C18.4773 34.6156 18.0344 33.8109 17.3599 33.2293C16.6854 32.6477 15.8243 32.3279 14.9336 32.3283H7.71427C7.30173 33.2854 6.99645 34.9383 6.99645 37.7353C6.99645 40.5433 8.01679 42.0834 9.02888 42.9525C10.1372 43.9013 11.3556 44.1488 11.7076 44.1488C12.2547 44.1488 12.7793 44.3661 13.1661 44.753C13.553 45.1398 13.7703 45.6644 13.7703 46.2115C13.7703 47.3666 14.4083 49.465 15.8605 51.2802C17.2576 53.0321 19.2488 54.3192 21.8697 54.3192C23.6217 54.3192 25.2333 53.3346 26.5177 51.9925C27.1392 51.3379 27.6232 50.6586 27.9423 50.1086C28.063 49.9029 28.1687 49.6887 28.2586 49.4678L28.2751 49.4293V23.39H25.8108C25.3322 24.5734 24.4568 25.5534 23.3348 26.1621C22.2128 26.7708 20.9141 26.9704 19.6611 26.7265C18.4081 26.4827 17.2789 25.8107 16.4671 24.8256C15.6552 23.8406 15.2113 22.6038 15.2113 21.3273C15.2113 20.0509 15.6552 18.8141 16.4671 17.8291C17.2789 16.844 18.4081 16.172 19.6611 15.9281C20.9141 15.6843 22.2128 15.8839 23.3348 16.4926C24.4568 17.1013 25.3322 18.0813 25.8108 19.2647H28.2751V12.2846L28.2668 12.1278C28.2197 11.2808 28.0531 10.4447 27.7718 9.64432C27.5242 8.98426 27.2025 8.46997 26.8229 8.13169C26.4846 7.82916 26.0171 7.59264 25.2553 7.59264C23.1486 7.59264 21.0612 8.30221 19.5348 9.49031M32.4362 44.7044V49.4293L32.4499 49.4678C32.5049 49.6136 32.6094 49.8308 32.7689 50.1086C33.0852 50.6586 33.5693 51.3379 34.1936 51.9925C35.4752 53.3346 37.0896 54.3192 38.8415 54.3192C41.4597 54.3192 43.4509 53.0321 44.8507 51.2802C46.3001 49.465 46.9409 47.3639 46.9409 46.2115C46.9409 45.6644 47.1582 45.1398 47.5451 44.753C47.9319 44.3661 48.4566 44.1488 49.0036 44.1488C49.3556 44.1488 50.5712 43.9013 51.6823 42.9525C52.6917 42.0834 53.712 40.5433 53.712 37.7353C53.712 34.413 53.2775 32.7023 52.7522 31.858C52.5878 31.566 52.3384 31.331 52.0371 31.1842C51.7593 31.0522 51.3413 30.9532 50.695 30.9532C50.3217 30.9531 49.9554 30.8518 49.6351 30.6599C49.3149 30.4681 49.0527 30.1929 48.8765 29.8638C48.7004 29.5346 48.6169 29.1638 48.6349 28.7909C48.6529 28.418 48.7718 28.057 48.9789 27.7464C49.5509 26.8883 49.9139 25.6177 49.9854 24.0886C50.0446 22.5461 49.8352 21.005 49.3666 19.5342C48.8991 18.0821 48.2528 17.004 47.6175 16.4044C47.0427 15.8654 46.6439 15.8351 46.2699 15.9616C45.9598 16.0654 45.6295 16.0939 45.3062 16.0449C44.9829 15.9959 44.6759 15.8708 44.4105 15.6798C44.1451 15.4888 43.9289 15.2374 43.7797 14.9464C43.6306 14.6555 43.5527 14.3332 43.5526 14.0062C43.5526 12.213 42.6726 10.6564 41.1709 9.48756C39.65 8.30221 37.5599 7.58989 35.4504 7.58989C34.6914 7.58989 34.2266 7.82916 33.8855 8.12894C33.455 8.55121 33.1307 9.06962 32.9395 9.64157C32.631 10.4899 32.4611 11.3823 32.4362 12.2846V40.579H34.1853C35.17 40.579 36.1144 40.1878 36.8107 39.4916C37.507 38.7953 37.8981 37.8509 37.8981 36.8662V31.9295C36.7148 31.4508 35.7348 30.5755 35.1261 29.4535C34.5173 28.3315 34.3178 27.0327 34.5616 25.7797C34.8055 24.5268 35.4775 23.3976 36.4625 22.5858C37.4476 21.7739 38.6843 21.33 39.9608 21.33C41.2373 21.33 42.4741 21.7739 43.4591 22.5858C44.4442 23.3976 45.1162 24.5268 45.36 25.7797C45.6038 27.0327 45.4043 28.3315 44.7956 29.4535C44.1868 30.5755 43.2068 31.4508 42.0235 31.9295V36.8662C42.0235 38.945 41.1977 40.9387 39.7278 42.4086C38.2578 43.8786 36.2641 44.7044 34.1853 44.7044H32.4362ZM20.7091 19.9522C20.3444 19.9522 19.9947 20.0971 19.7368 20.355C19.4789 20.6129 19.334 20.9626 19.334 21.3273C19.334 21.692 19.4789 22.0418 19.7368 22.2997C19.9947 22.5576 20.3444 22.7025 20.7091 22.7025C21.0739 22.7025 21.4236 22.5576 21.6815 22.2997C21.9394 22.0418 22.0843 21.692 22.0843 21.3273C22.0843 20.9626 21.9394 20.6129 21.6815 20.355C21.4236 20.0971 21.0739 19.9522 20.7091 19.9522ZM19.334 40.579C19.334 40.9437 19.4789 41.2935 19.7368 41.5514C19.9947 41.8093 20.3444 41.9541 20.7091 41.9541C21.0739 41.9541 21.4236 41.8093 21.6815 41.5514C21.9394 41.2935 22.0843 40.9437 22.0843 40.579C22.0843 40.2143 21.9394 39.8645 21.6815 39.6067C21.4236 39.3488 21.0739 39.2039 20.7091 39.2039C20.3444 39.2039 19.9947 39.3488 19.7368 39.6067C19.4789 39.8645 19.334 40.2143 19.334 40.579ZM38.5857 26.8278C38.5857 27.1925 38.7306 27.5423 38.9885 27.8002C39.2463 28.0581 39.5961 28.2029 39.9608 28.2029C40.3255 28.2029 40.6753 28.0581 40.9332 27.8002C41.1911 27.5423 41.3359 27.1925 41.3359 26.8278C41.3359 26.4631 41.1911 26.1133 40.9332 25.8555C40.6753 25.5976 40.3255 25.4527 39.9608 25.4527C39.5961 25.4527 39.2463 25.5976 38.9885 25.8555C38.7306 26.1133 38.5857 26.4631 38.5857 26.8278Z" fill="#43B3E8"/>
        </symbol>
    <!-- icon hero card-->
        <symbol id="icon-hero-card-second" viewBox="0 0 61 61" fill="none">
            <path d="M17.0018 6.23403C19.29 4.45187 22.2823 3.46729 25.2553 3.46729C27.0347 3.46729 28.4731 4.07784 29.5649 5.04867C29.8592 5.30995 30.1205 5.59322 30.3542 5.88475C30.588 5.59322 30.8493 5.30995 31.1436 5.04867C32.2354 4.07784 33.6738 3.46729 35.4532 3.46729C38.4262 3.46729 41.4212 4.45187 43.7039 6.23403C45.4861 7.6174 46.8804 9.52881 47.4277 11.8363C48.5828 12.0288 49.6087 12.6173 50.4392 13.3956C51.7593 14.636 52.7027 16.4292 53.294 18.2746C53.8963 20.1475 54.1961 22.2514 54.1053 24.2728C54.0585 25.3069 53.9073 26.363 53.6185 27.3724L53.7973 27.4549C54.8149 27.9334 55.6399 28.6842 56.2587 29.6826C57.4276 31.5665 57.8401 34.2782 57.8401 37.7353C57.8401 41.7094 56.3192 44.4073 54.3666 46.0822C53.3495 46.9545 52.1591 47.6013 50.8738 47.9799C50.4074 50.1291 49.4491 52.1409 48.074 53.8572C46.0856 56.3434 42.9943 58.4446 38.8415 58.4446C35.5137 58.4446 32.8927 56.6019 31.2096 54.8418C30.9111 54.5272 30.6266 54.1996 30.357 53.8599C30.0864 54.1987 29.801 54.5254 29.5017 54.839C27.8185 56.6047 25.1975 58.4446 21.8697 58.4446C17.7141 58.4446 14.6229 56.3434 12.6372 53.8572C11.2601 52.1414 10.2998 50.1296 9.83195 47.9799C8.5476 47.601 7.35812 46.9543 6.3419 46.0822C4.38923 44.4046 2.87109 41.7094 2.87109 37.7353C2.87109 34.2782 3.28363 31.5665 4.44973 29.6826C5.06841 28.6569 5.99124 27.8494 7.08996 27.3724C6.8074 26.3617 6.64402 25.3215 6.60317 24.2728C6.51241 22.2514 6.81219 20.1475 7.41449 18.2746C8.00579 16.4319 8.94637 14.636 10.2692 13.3956C11.0966 12.5892 12.1447 12.0465 13.2807 11.8363C13.8308 9.52606 15.2224 7.6174 17.0018 6.23403ZM19.5375 9.48756C18.0359 10.6564 17.1558 12.213 17.1558 14.0062C17.1556 14.3329 17.0778 14.6548 16.9288 14.9455C16.7798 15.2362 16.5638 15.4873 16.2988 15.6783C16.0337 15.8692 15.7271 15.9945 15.4042 16.0437C15.0813 16.093 14.7513 16.0648 14.4414 15.9616C14.0646 15.8351 13.6658 15.8654 13.0937 16.4044C12.4557 17.0012 11.8094 18.0821 11.3418 19.5342C10.8741 21.0052 10.6657 22.5462 10.7258 24.0886C10.7945 25.6177 11.1576 26.8883 11.7296 27.7464C11.8243 27.8886 11.9009 28.0419 11.9579 28.2029H14.9336C16.9137 28.2025 18.8206 28.9515 20.271 30.2994C21.7215 31.6473 22.6081 33.4943 22.7526 35.4691C23.9373 35.9418 24.921 36.8116 25.5351 37.9296C26.1492 39.0477 26.3557 40.3444 26.1192 41.5978C25.8826 42.8513 25.2178 43.9836 24.2384 44.8009C23.2591 45.6182 22.0261 46.0698 20.7506 46.0782C19.475 46.0867 18.2362 45.6516 17.2461 44.8473C16.256 44.0431 15.5762 42.9197 15.323 41.6695C15.0699 40.4193 15.2591 39.1199 15.8583 37.9939C16.4576 36.8678 17.4296 35.985 18.608 35.4966C18.4773 34.6156 18.0344 33.8109 17.3599 33.2293C16.6854 32.6477 15.8243 32.3279 14.9336 32.3283H7.71427C7.30173 33.2854 6.99645 34.9383 6.99645 37.7353C6.99645 40.5433 8.01679 42.0834 9.02888 42.9525C10.1372 43.9013 11.3556 44.1488 11.7076 44.1488C12.2547 44.1488 12.7793 44.3661 13.1661 44.753C13.553 45.1398 13.7703 45.6644 13.7703 46.2115C13.7703 47.3666 14.4083 49.465 15.8605 51.2802C17.2576 53.0321 19.2488 54.3192 21.8697 54.3192C23.6217 54.3192 25.2333 53.3346 26.5177 51.9925C27.1392 51.3379 27.6232 50.6586 27.9423 50.1086C28.063 49.9029 28.1687 49.6887 28.2586 49.4678L28.2751 49.4293V23.39H25.8108C25.3322 24.5734 24.4568 25.5534 23.3348 26.1621C22.2128 26.7708 20.9141 26.9704 19.6611 26.7265C18.4081 26.4827 17.2789 25.8107 16.4671 24.8256C15.6552 23.8406 15.2113 22.6038 15.2113 21.3273C15.2113 20.0509 15.6552 18.8141 16.4671 17.8291C17.2789 16.844 18.4081 16.172 19.6611 15.9281C20.9141 15.6843 22.2128 15.8839 23.3348 16.4926C24.4568 17.1013 25.3322 18.0813 25.8108 19.2647H28.2751V12.2846L28.2668 12.1278C28.2197 11.2808 28.0531 10.4447 27.7718 9.64432C27.5242 8.98426 27.2025 8.46997 26.8229 8.13169C26.4846 7.82916 26.0171 7.59264 25.2553 7.59264C23.1486 7.59264 21.0612 8.30221 19.5348 9.49031M32.4362 44.7044V49.4293L32.4499 49.4678C32.5049 49.6136 32.6094 49.8308 32.7689 50.1086C33.0852 50.6586 33.5693 51.3379 34.1936 51.9925C35.4752 53.3346 37.0896 54.3192 38.8415 54.3192C41.4597 54.3192 43.4509 53.0321 44.8507 51.2802C46.3001 49.465 46.9409 47.3639 46.9409 46.2115C46.9409 45.6644 47.1582 45.1398 47.5451 44.753C47.9319 44.3661 48.4566 44.1488 49.0036 44.1488C49.3556 44.1488 50.5712 43.9013 51.6823 42.9525C52.6917 42.0834 53.712 40.5433 53.712 37.7353C53.712 34.413 53.2775 32.7023 52.7522 31.858C52.5878 31.566 52.3384 31.331 52.0371 31.1842C51.7593 31.0522 51.3413 30.9532 50.695 30.9532C50.3217 30.9531 49.9554 30.8518 49.6351 30.6599C49.3149 30.4681 49.0527 30.1929 48.8765 29.8638C48.7004 29.5346 48.6169 29.1638 48.6349 28.7909C48.6529 28.418 48.7718 28.057 48.9789 27.7464C49.5509 26.8883 49.9139 25.6177 49.9854 24.0886C50.0446 22.5461 49.8352 21.005 49.3666 19.5342C48.8991 18.0821 48.2528 17.004 47.6175 16.4044C47.0427 15.8654 46.6439 15.8351 46.2699 15.9616C45.9598 16.0654 45.6295 16.0939 45.3062 16.0449C44.9829 15.9959 44.6759 15.8708 44.4105 15.6798C44.1451 15.4888 43.9289 15.2374 43.7797 14.9464C43.6306 14.6555 43.5527 14.3332 43.5526 14.0062C43.5526 12.213 42.6726 10.6564 41.1709 9.48756C39.65 8.30221 37.5599 7.58989 35.4504 7.58989C34.6914 7.58989 34.2266 7.82916 33.8855 8.12894C33.455 8.55121 33.1307 9.06962 32.9395 9.64157C32.631 10.4899 32.4611 11.3823 32.4362 12.2846V40.579H34.1853C35.17 40.579 36.1144 40.1878 36.8107 39.4916C37.507 38.7953 37.8981 37.8509 37.8981 36.8662V31.9295C36.7148 31.4508 35.7348 30.5755 35.1261 29.4535C34.5173 28.3315 34.3178 27.0327 34.5616 25.7797C34.8055 24.5268 35.4775 23.3976 36.4625 22.5858C37.4476 21.7739 38.6843 21.33 39.9608 21.33C41.2373 21.33 42.4741 21.7739 43.4591 22.5858C44.4442 23.3976 45.1162 24.5268 45.36 25.7797C45.6038 27.0327 45.4043 28.3315 44.7956 29.4535C44.1868 30.5755 43.2068 31.4508 42.0235 31.9295V36.8662C42.0235 38.945 41.1977 40.9387 39.7278 42.4086C38.2578 43.8786 36.2641 44.7044 34.1853 44.7044H32.4362ZM20.7091 19.9522C20.3444 19.9522 19.9947 20.0971 19.7368 20.355C19.4789 20.6129 19.334 20.9626 19.334 21.3273C19.334 21.692 19.4789 22.0418 19.7368 22.2997C19.9947 22.5576 20.3444 22.7025 20.7091 22.7025C21.0739 22.7025 21.4236 22.5576 21.6815 22.2997C21.9394 22.0418 22.0843 21.692 22.0843 21.3273C22.0843 20.9626 21.9394 20.6129 21.6815 20.355C21.4236 20.0971 21.0739 19.9522 20.7091 19.9522ZM19.334 40.579C19.334 40.9437 19.4789 41.2935 19.7368 41.5514C19.9947 41.8093 20.3444 41.9541 20.7091 41.9541C21.0739 41.9541 21.4236 41.8093 21.6815 41.5514C21.9394 41.2935 22.0843 40.9437 22.0843 40.579C22.0843 40.2143 21.9394 39.8645 21.6815 39.6067C21.4236 39.3488 21.0739 39.2039 20.7091 39.2039C20.3444 39.2039 19.9947 39.3488 19.7368 39.6067C19.4789 39.8645 19.334 40.2143 19.334 40.579ZM38.5857 26.8278C38.5857 27.1925 38.7306 27.5423 38.9885 27.8002C39.2463 28.0581 39.5961 28.2029 39.9608 28.2029C40.3255 28.2029 40.6753 28.0581 40.9332 27.8002C41.1911 27.5423 41.3359 27.1925 41.3359 26.8278C41.3359 26.4631 41.1911 26.1133 40.9332 25.8555C40.6753 25.5976 40.3255 25.4527 39.9608 25.4527C39.5961 25.4527 39.2463 25.5976 38.9885 25.8555C38.7306 26.1133 38.5857 26.4631 38.5857 26.8278Z" fill="#43B3E8"/>
        </symbol>
    <!-- icon hero card-->
        <symbol id="icon-hero-card-third" viewBox="0 0 60 60" fill="none">
            <path d="M57.8359 52.8701C57.8359 53.5342 57.5918 54.1104 57.1035 54.5986C56.6152 55.0869 56.0391 55.3311 55.375 55.3311H5.33594C4.67188 55.3311 4.0957 55.0869 3.60742 54.5986C3.11914 54.1104 2.875 53.5342 2.875 52.8701C2.875 52.167 3.11914 51.5713 3.60742 51.083C4.0957 50.5947 4.67188 50.3506 5.33594 50.3506H55.375C56.0391 50.3506 56.6152 50.5947 57.1035 51.083C57.5918 51.5713 57.8359 52.167 57.8359 52.8701ZM7.85547 46.6006C7.50391 46.6006 7.21094 46.4834 6.97656 46.249C6.74219 46.0146 6.625 45.7217 6.625 45.3701V40.3311C6.625 39.3154 6.98633 38.4365 7.70898 37.6943C8.43164 36.9521 9.32031 36.5811 10.375 36.5811H15.3555C16.3711 36.5811 17.25 36.9521 17.9922 37.6943C18.7344 38.4365 19.1055 39.3154 19.1055 40.3311V45.3701C19.1055 45.7217 18.9883 46.0146 18.7539 46.249C18.5195 46.4834 18.2266 46.6006 17.875 46.6006H7.85547ZM25.375 46.6006C25.0234 46.6006 24.7207 46.4834 24.4668 46.249C24.2129 46.0146 24.0859 45.7217 24.0859 45.3701V27.8506C24.0859 26.835 24.457 25.9561 25.1992 25.2139C25.9414 24.4717 26.8203 24.1006 27.8359 24.1006H32.875C33.8906 24.1006 34.7695 24.4717 35.5117 25.2139C36.2539 25.9561 36.625 26.835 36.625 27.8506V45.3701C36.625 45.7217 36.498 46.0146 36.2441 46.249C35.9902 46.4834 35.6875 46.6006 35.3359 46.6006H25.375ZM42.8359 46.6006C42.5234 46.6006 42.2402 46.4834 41.9863 46.249C41.7324 46.0146 41.6055 45.7217 41.6055 45.3701V10.3311C41.6055 9.31543 41.9766 8.43652 42.7188 7.69434C43.4609 6.95215 44.3398 6.58105 45.3555 6.58105H50.3359C51.3906 6.58105 52.2793 6.95215 53.002 7.69434C53.7246 8.43652 54.0859 9.31543 54.0859 10.3311V45.3701C54.0859 45.7217 53.9688 46.0146 53.7344 46.249C53.5 46.4834 53.207 46.6006 52.8555 46.6006H42.8359Z" fill="#43B3E8"/>
        </symbol>
    <!-- icon footer-email-->
        <symbol id="icon-footer-email" viewBox="0 0 20 24" fill="none">
            <path d="M18.125 7.80115V16.5511C18.125 17.0484 17.9274 17.5253 17.5758 17.877C17.2242 18.2286 16.7472 18.4261 16.25 18.4261H3.75C3.25272 18.4261 2.77581 18.2286 2.42417 17.877C2.07254 17.5253 1.875 17.0484 1.875 16.5511V7.80115M18.125 7.80115C18.125 7.30386 17.9274 6.82696 17.5758 6.47532C17.2242 6.12369 16.7472 5.92615 16.25 5.92615H3.75C3.25272 5.92615 2.77581 6.12369 2.42417 6.47532C2.07254 6.82696 1.875 7.30386 1.875 7.80115M18.125 7.80115V8.00365C18.125 8.32377 18.0431 8.63857 17.887 8.91806C17.7309 9.19756 17.5059 9.43243 17.2333 9.60031L10.9833 13.4461C10.6877 13.6282 10.3472 13.7246 10 13.7246C9.65275 13.7246 9.31233 13.6282 9.01667 13.4461L2.76667 9.60115C2.4941 9.43326 2.26906 9.19839 2.11297 8.9189C1.95689 8.63941 1.87497 8.32461 1.875 8.00448V7.80115" stroke="#43B3E8" stroke-width="0.833333" stroke-linecap="round" stroke-linejoin="round"/>
        </symbol>
    <!-- icon footer-tel-->
        <symbol id="icon-tel" viewBox="0 0 20 24" fill="none">
            <path d="M16.875 5.30115V9.05115M16.875 5.30115H13.125M16.875 5.30115L11.875 10.3011M14.375 20.3011C7.47167 20.3011 1.875 14.7045 1.875 7.80115V5.92615C1.875 5.42886 2.07254 4.95196 2.42417 4.60032C2.77581 4.24869 3.25272 4.05115 3.75 4.05115H4.89333C5.32333 4.05115 5.69833 4.34365 5.8025 4.76115L6.72417 8.44698C6.81583 8.81365 6.67917 9.19865 6.37667 9.42448L5.29917 10.2328C5.14494 10.3445 5.03083 10.5029 4.97378 10.6845C4.91674 10.8661 4.91979 11.0614 4.9825 11.2411C5.48406 12.6054 6.27617 13.8443 7.30398 14.8721C8.33179 15.9 9.57075 16.6921 10.935 17.1936C11.3025 17.3286 11.7083 17.1903 11.9433 16.877L12.7517 15.7995C12.8623 15.6518 13.0141 15.54 13.188 15.4782C13.3618 15.4164 13.5501 15.4072 13.7292 15.452L17.415 16.3736C17.8317 16.4778 18.125 16.8528 18.125 17.2828V18.4261C18.125 18.9234 17.9274 19.4003 17.5758 19.752C17.2242 20.1036 16.7472 20.3011 16.25 20.3011H14.375Z" stroke="#43B3E8" stroke-width="1.25" stroke-linecap="round" stroke-linejoin="round"/>
        </symbol>
    <!-- icon footer-location-->
        <symbol id="icon-location" viewBox="0 0 20 25" fill="none">
            <path d="M18.8095 10.6523C18.8095 19.1547 9.88096 24.0452 9.88096 24.0452C9.88096 24.0452 0.952393 19.1547 0.952393 10.6523C0.952393 8.28433 1.89308 6.01331 3.56751 4.33887C5.24195 2.66444 7.51296 1.72375 9.88096 1.72375C12.249 1.72375 14.52 2.66444 16.1944 4.33887C17.8689 6.01331 18.8095 8.28433 18.8095 10.6523Z" stroke="#43B3E8" stroke-width="0.952381" stroke-linecap="round" stroke-linejoin="round"/>
            <path d="M13.4524 10.6524C13.4524 11.5996 13.0761 12.508 12.4064 13.1778C11.7366 13.8475 10.8282 14.2238 9.881 14.2238C8.9338 14.2238 8.02539 13.8475 7.35562 13.1778C6.68585 12.508 6.30957 11.5996 6.30957 10.6524C6.30957 9.70516 6.68585 8.79675 7.35562 8.12698C8.02539 7.45721 8.9338 7.08093 9.881 7.08093C10.8282 7.08093 11.7366 7.45721 12.4064 8.12698C13.0761 8.79675 13.4524 9.70516 13.4524 10.6524Z" fill="#43B3E8"/>
        </symbol>
    </defs>
</svg>
