<svg width="172" height="51" viewBox="0 0 172 51" fill="none" xmlns="http://www.w3.org/2000/svg">
<path d="M45.2589 20.6523C45.2669 20.7731 45.2819 20.8965 45.3027 21.0158C45.5977 22.6937 45.2277 24.532 44.2195 25.9177C43.7315 26.5935 43.245 27.2679 42.777 27.9584C41.8203 29.3295 40.3287 30.1875 38.6717 30.2928C38.5805 30.2984 38.4893 30.3086 38.3981 30.3214C36.8432 30.5406 35.3815 32.7359 36.0301 34.3464C36.6699 35.9342 37.6255 37.0036 40.4205 36.4961C40.5106 36.4797 40.6012 36.5017 40.6883 36.4989C42.4409 36.4411 44.1776 37.0742 45.5794 38.1206C46.2978 38.6684 47.0074 39.2281 47.7102 39.7975C49.0366 40.8947 50.1667 42.3347 50.7322 43.9839C50.7657 44.0825 50.8054 44.1822 50.8506 44.2828C51.2291 45.1259 51.9001 45.8234 52.6371 46.3561C53.3281 46.8556 54.1662 47.2742 55.0224 47.325C56.738 47.4267 57.5627 45.7289 57.2702 44.2195C56.8971 42.2942 54.9723 40.9442 53.0564 41.012C53.034 41.0128 53.011 41.0139 52.9885 41.015C51.3657 41.0992 49.7991 40.4473 48.5286 39.4556C47.5289 38.6581 46.55 37.8364 45.5301 37.0656C44.2683 36.1003 43.1218 34.8239 42.6814 33.2503C42.6797 33.2436 42.6778 33.2375 42.6756 33.2306C42.6734 33.2239 42.6718 33.2172 42.6696 33.2109C42.2481 31.7534 42.5214 30.2625 43.3491 28.9889C44.0012 28.0128 44.6342 27.0249 45.3268 26.0782C46.3049 24.7324 47.8093 23.8581 49.402 23.5324C49.4264 23.5273 49.4513 23.5221 49.4765 23.5169C51.5172 23.0743 53.1233 21.1294 52.8086 18.9667C52.512 16.9275 50.5559 15.6055 48.5847 16.0841C46.6251 16.5591 45.1212 18.6109 45.2589 20.6523Z" fill="url(#paint0_linear_38_3927)"/>
<path d="M60.968 14.0485C60.8418 14.0573 60.713 14.0731 60.5887 14.0952C58.855 14.4005 56.8937 14.0776 55.4613 12.9845C54.7919 12.4771 54.128 11.9628 53.4584 11.4565C52.1654 10.4544 51.3514 8.9562 51.3136 7.29581C51.3114 7.20565 51.3059 7.11442 51.2963 7.02492C51.1829 5.94565 50.2843 4.89265 49.1732 4.72028C47.1831 4.56178 46.3787 5.07965 45.6181 6.02712C45.1761 6.57809 45.1643 7.60245 45.0865 8.31095C45.015 8.95895 45.2122 9.53759 45.1257 10.1974C44.9381 11.624 44.3772 13.0145 43.5996 14.2139C43.1047 14.978 42.601 15.7365 42.0877 16.4878C41.0957 17.9101 39.6565 19.0626 38.014 19.6042C37.9148 19.6369 37.8187 19.6882 37.7124 19.7204C35.494 20.3934 34.1281 22.3279 34.4274 23.986C34.3842 24.6986 34.8679 25.3297 35.4479 25.7564C36.0976 26.2338 36.9403 26.2846 37.6924 26.1165C39.5239 25.7074 40.9114 23.8688 40.8794 21.9551C40.8788 21.9328 40.8783 21.9111 40.878 21.8893C40.8197 20.2754 41.503 18.7104 42.4008 17.4116C43.1386 16.3599 43.819 15.2714 44.5242 14.1978C45.4157 12.8706 46.6756 11.7493 48.225 11.3086C48.2318 11.307 48.2384 11.3048 48.2447 11.3032C48.2513 11.3015 48.2581 11.2994 48.2641 11.2973C49.7141 10.8839 51.1972 11.158 52.4351 12.0444C53.3806 12.7429 54.3082 13.4667 55.2586 14.1584C56.579 15.1108 57.4949 16.5759 57.7923 18.1744C57.7964 18.1982 57.8008 18.222 57.806 18.2463C58.2347 20.388 60.3981 21.6976 62.4739 21.4035C64.4209 21.1274 65.9744 19.4006 65.4954 17.3555C65.0298 15.3621 62.9608 13.9104 60.968 14.0485Z" fill="url(#paint1_linear_38_3927)"/>
<path d="M70.9997 39.5159C71.3892 37.6559 72.7082 35.797 74.3283 34.8365C74.6367 34.6537 75.4186 34.1673 75.7916 34.4848C76.1376 34.779 75.6999 35.4987 75.5525 35.7798C75.1162 36.609 74.5548 37.3878 74.0095 38.1542C73.4636 38.9212 72.9123 39.7101 72.2739 40.392C72.0548 40.6259 71.5221 41.2659 71.1351 41.0201C70.7223 40.7578 70.9244 39.8745 70.9997 39.5159Z" fill="url(#paint2_linear_38_3927)"/>
<path d="M41.4875 41.3931C41.266 41.1806 40.6196 40.6334 40.8562 40.2464C41.1129 39.8275 42.0013 40.042 42.3558 40.1189C44.1949 40.5181 46.0239 41.8664 46.9792 43.507C47.1611 43.8195 47.6311 44.5859 47.318 44.9575C47.0255 45.305 46.312 44.8625 46.0392 44.715C45.2206 44.2734 44.4507 43.7039 43.6937 43.152C42.9364 42.5998 42.1605 42.04 41.4875 41.3931Z" fill="url(#paint3_linear_38_3927)"/>
<path d="M65.7871 7.07975C65.6069 6.77144 65.1418 6.00902 65.454 5.63755C65.7479 5.28708 66.454 5.72411 66.7345 5.87577C67.5534 6.31766 68.3219 6.8878 69.0786 7.43969C69.8362 7.992 70.6127 8.55041 71.2864 9.19775C71.5091 9.4113 72.1536 9.95769 71.9071 10.3385C71.6406 10.7494 70.7444 10.523 70.3952 10.4437C68.5741 10.0318 66.741 8.70914 65.7871 7.07975Z" fill="url(#paint4_linear_38_3927)"/>
<path d="M37.2213 14.8107C37.6579 13.9804 38.2196 13.1998 38.7652 12.4322C39.31 11.6659 39.8619 10.8799 40.4997 10.1985C40.7131 9.97089 41.2502 9.32192 41.638 9.54969C42.0499 9.79205 41.8442 10.659 41.7695 11.006C41.3715 12.8598 40.0528 14.7105 38.4538 15.6947C38.1438 15.8853 37.3709 16.3899 36.9888 16.0882C36.6358 15.8089 37.0811 15.0764 37.2213 14.8107Z" fill="url(#paint5_linear_38_3927)"/>
<path d="M59.6762 9.43319C59.7014 9.4323 59.726 9.43152 59.7512 9.43013C61.4778 9.34349 63.1625 10.0581 64.5163 11.1075C65.3207 11.7437 66.116 12.3917 66.9412 13.0005C68.3014 14.0167 69.5338 15.3619 70.0203 17.0384C70.0222 17.0451 70.0241 17.0525 70.0263 17.0592C70.0331 17.082 70.04 17.1054 70.0468 17.1283C70.525 18.6851 70.2446 20.2938 69.2769 21.6106C68.7911 22.2534 68.2929 22.8877 67.8404 23.5559C66.804 25.093 65.1377 26.0534 63.3495 26.336C63.3202 26.3409 63.2901 26.3453 63.2602 26.3507C61.1067 26.7263 59.5392 28.8044 59.8515 31.0155C60.1475 33.108 62.071 34.7147 64.1756 34.2158C66.2152 33.7325 67.6736 31.5344 67.4857 29.4447C67.4833 29.4155 67.4803 29.3872 67.4772 29.3589C67.2776 27.5991 67.6457 25.6712 68.6747 24.2145C69.1548 23.5406 69.639 22.8714 70.1441 22.2163C71.1643 20.9284 72.6534 20.176 74.2762 20.0656C74.2981 20.0642 74.3197 20.0628 74.3416 20.0609C75.1148 19.9874 75.9022 19.6663 76.3769 19.0042C76.8039 18.4083 76.9668 16.9668 76.7195 16.2879C75.8836 13.993 74.4827 13.9697 72.3141 14.0048C72.2711 14.0054 72.2286 13.9987 72.1867 13.9969C70.3749 13.9192 68.6076 13.2586 67.145 12.178C66.4743 11.6736 65.8098 11.161 65.1503 10.6422C63.7864 9.54921 62.6035 8.10691 61.9678 6.45507C61.9464 6.39919 61.9223 6.34263 61.8971 6.28627C61.2162 4.76016 59.4261 3.35799 57.7513 3.26538C56.0633 3.17169 55.1954 4.78016 55.4912 6.3021C55.8585 8.19444 57.811 9.48758 59.6762 9.43319Z" fill="url(#paint6_linear_38_3927)"/>
<path d="M51.7132 36.193C51.8403 36.183 51.9703 36.1658 52.0961 36.1414C53.8804 35.7933 55.8302 36.2053 57.2722 37.3475C57.941 37.8741 58.6003 38.4128 59.2675 38.9416C60.5717 39.998 61.3868 41.5153 61.4397 43.2166C61.4427 43.3089 61.4479 43.4025 61.4588 43.4939C61.6415 45.0503 63.9035 46.1272 65.5159 45.4725C66.3252 45.1439 66.3723 45.1539 67.0242 44.2225C67.5511 43.4694 67.4906 42.3805 67.5736 41.4533C67.5815 41.3619 67.587 41.2722 67.5881 41.1853C67.6106 39.4341 68.2427 37.6694 69.1687 36.2047C69.6587 35.4458 70.1582 34.6939 70.6693 33.9494C71.6728 32.5203 73.0992 31.3847 74.7686 30.8833C74.8685 30.8533 74.9636 30.7944 75.072 30.7755C77.2281 30.4066 78.0426 28.3883 78.13 26.6767C78.2195 24.925 76.5987 24.0281 75.0613 24.276C73.1778 24.5798 71.8309 26.4346 71.8706 28.3491C71.8711 28.3722 71.872 28.3941 71.873 28.4169C71.933 30.0655 71.2617 31.645 70.3554 32.9828C69.6294 34.0405 68.9507 35.1278 68.2567 36.2078C67.3753 37.5486 66.1026 38.7041 64.5414 39.138C64.5346 39.1397 64.528 39.1419 64.5211 39.1436C64.5146 39.1458 64.5077 39.1475 64.5011 39.1494C63.0331 39.5714 61.5287 39.2778 60.2863 38.3594C59.3258 37.6264 58.3973 36.8564 57.4576 36.0969C56.1205 35.0164 55.1863 33.4764 54.8697 31.783C54.8653 31.758 54.8604 31.7322 54.8555 31.7072C54.4216 29.5341 52.3072 28.0939 50.1572 28.4489C48.1349 28.7825 46.6759 30.6775 47.1489 32.7536C47.6095 34.7822 49.656 36.3558 51.7132 36.193Z" fill="url(#paint7_linear_38_3927)"/>
<path d="M3.75833 38.5241V19.8654L6.76786 22.7638H0.182617V17.3896H10.7905V38.5241H3.75833Z" fill="url(#paint8_linear_38_3927)"/>
<path d="M21.0698 33.9953L20.6824 26.1756L28.5489 17.3896H36.2068L27.3868 27.2323L23.4833 31.278L21.0698 33.9953ZM14.7825 38.5241V17.3896H21.6955V38.5241H14.7825ZM28.4892 38.5241L22.351 30.3119L26.9101 25.4208L36.6242 38.5241H28.4892Z" fill="url(#paint9_linear_38_3927)"/>
<path d="M78.9543 38.5241V17.3896H84.7352L95.3431 30.2516H92.6612V17.3896H99.5146V38.5241H93.734L83.1262 25.6623H85.8078V38.5241H78.9543Z" fill="url(#paint10_linear_38_3927)"/>
<path d="M114.435 39.0073C112.746 39.0073 111.177 38.7356 109.727 38.1923C108.296 37.6486 107.055 36.8839 106.002 35.8975C104.949 34.8911 104.125 33.7136 103.529 32.365C102.953 31.0164 102.665 29.547 102.665 27.957C102.665 26.3467 102.953 24.8774 103.529 23.5489C104.125 22.2003 104.949 21.0329 106.002 20.0466C107.055 19.0402 108.296 18.2653 109.727 17.7218C111.177 17.1784 112.746 16.9066 114.435 16.9066C116.143 16.9066 117.712 17.1784 119.143 17.7218C120.573 18.2653 121.815 19.0402 122.867 20.0466C123.92 21.0329 124.735 22.2003 125.311 23.5489C125.907 24.8774 126.205 26.3467 126.205 27.957C126.205 29.547 125.907 31.0164 125.311 32.365C124.735 33.7136 123.92 34.8911 122.867 35.8975C121.815 36.8839 120.573 37.6486 119.143 38.1923C117.712 38.7356 116.143 39.0073 114.435 39.0073ZM114.435 33.2406C115.09 33.2406 115.696 33.1198 116.252 32.8784C116.828 32.6367 117.325 32.2945 117.742 31.8517C118.179 31.3889 118.517 30.8353 118.755 30.1911C118.994 29.527 119.113 28.7823 119.113 27.957C119.113 27.1317 118.994 26.3971 118.755 25.7529C118.517 25.0887 118.179 24.5352 117.742 24.0924C117.325 23.6294 116.828 23.2772 116.252 23.0356C115.696 22.7941 115.09 22.6733 114.435 22.6733C113.779 22.6733 113.163 22.7941 112.587 23.0356C112.031 23.2772 111.534 23.6294 111.097 24.0924C110.68 24.5352 110.352 25.0887 110.114 25.7529C109.876 26.3971 109.757 27.1317 109.757 27.957C109.757 28.7823 109.876 29.527 110.114 30.1911C110.352 30.8353 110.68 31.3889 111.097 31.8517C111.534 32.2945 112.031 32.6367 112.587 32.8784C113.163 33.1198 113.779 33.2406 114.435 33.2406Z" fill="url(#paint11_linear_38_3927)"/>
<path d="M129.353 38.5241V17.3896H139.633C141.957 17.3896 144.003 17.8224 145.771 18.6879C147.539 19.5333 148.92 20.741 149.913 22.311C150.906 23.881 151.403 25.7529 151.403 27.9267C151.403 30.1208 150.906 32.0128 149.913 33.6028C148.92 35.1728 147.539 36.3905 145.771 37.2561C144.003 38.1016 141.957 38.5241 139.633 38.5241H129.353ZM136.385 32.9689H139.335C140.328 32.9689 141.193 32.7778 141.927 32.3953C142.682 32.0128 143.268 31.4491 143.685 30.7044C144.103 29.9394 144.311 29.0136 144.311 27.9267C144.311 26.86 144.103 25.9542 143.685 25.2095C143.268 24.4647 142.682 23.9011 141.927 23.5187C141.193 23.1362 140.328 22.945 139.335 22.945H136.385V32.9689Z" fill="url(#paint12_linear_38_3927)"/>
<path d="M161.003 25.2396H170.3V30.3722H161.003V25.2396ZM161.48 33.15H171.909V38.5241H154.567V17.3896H171.522V22.7639H161.48V33.15Z" fill="url(#paint13_linear_38_3927)"/>
<defs>
<linearGradient id="paint0_linear_38_3927" x1="43.2001" y1="17.0614" x2="48.3457" y2="48.2895" gradientUnits="userSpaceOnUse">
<stop stop-color="#8245EA"/>
<stop offset="1" stop-color="#47AAEC"/>
</linearGradient>
<linearGradient id="paint1_linear_38_3927" x1="47.6361" y1="4.82037" x2="50.7717" y2="23.8491" gradientUnits="userSpaceOnUse">
<stop stop-color="#41B2EA"/>
<stop offset="0.0001" stop-color="#17E7DC"/>
<stop offset="1" stop-color="#6186FE"/>
</linearGradient>
<linearGradient id="paint2_linear_38_3927" x1="72.9917" y1="34.7956" x2="73.9503" y2="40.6124" gradientUnits="userSpaceOnUse">
<stop stop-color="#8245EA"/>
<stop offset="1" stop-color="#47AAEC"/>
</linearGradient>
<linearGradient id="paint3_linear_38_3927" x1="43.694" y1="39.6309" x2="44.6522" y2="45.4469" gradientUnits="userSpaceOnUse">
<stop stop-color="#26CED9"/>
<stop offset="1" stop-color="#6195F8"/>
</linearGradient>
<linearGradient id="paint4_linear_38_3927" x1="71.2933" y1="5.03158" x2="62.6883" y2="14.5272" gradientUnits="userSpaceOnUse">
<stop offset="0.1832" stop-color="#8C0FE0"/>
<stop offset="0.3873" stop-color="#6235EC"/>
<stop offset="0.6108" stop-color="#3062FB"/>
<stop offset="0.6811" stop-color="#3166FB"/>
<stop offset="0.7505" stop-color="#3272F9"/>
<stop offset="0.8195" stop-color="#3586F8"/>
<stop offset="0.8883" stop-color="#38A1F5"/>
<stop offset="0.9563" stop-color="#3DC5F1"/>
<stop offset="0.9973" stop-color="#40DEEF"/>
</linearGradient>
<linearGradient id="paint5_linear_38_3927" x1="38.932" y1="9.93167" x2="39.8872" y2="15.729" gradientUnits="userSpaceOnUse">
<stop stop-color="#41B2EA"/>
<stop offset="0.0001" stop-color="#17E7DC"/>
<stop offset="1" stop-color="#6186FE"/>
</linearGradient>
<linearGradient id="paint6_linear_38_3927" x1="64.7921" y1="2.14607" x2="69.8906" y2="33.0897" gradientUnits="userSpaceOnUse">
<stop stop-color="#8245EA"/>
<stop offset="1" stop-color="#47AAEC"/>
</linearGradient>
<linearGradient id="paint7_linear_38_3927" x1="62.3679" y1="26.4284" x2="65.4975" y2="45.4213" gradientUnits="userSpaceOnUse">
<stop stop-color="#41B2EA"/>
<stop offset="0.0001" stop-color="#17E7DC"/>
<stop offset="1" stop-color="#6186FE"/>
</linearGradient>
<linearGradient id="paint8_linear_38_3927" x1="18.6663" y1="17.455" x2="18.6663" y2="38.3972" gradientUnits="userSpaceOnUse">
<stop stop-color="#26CED9"/>
<stop offset="1" stop-color="#6195F8"/>
</linearGradient>
<linearGradient id="paint9_linear_38_3927" x1="18.6663" y1="17.455" x2="18.6663" y2="38.3972" gradientUnits="userSpaceOnUse">
<stop stop-color="#26CED9"/>
<stop offset="1" stop-color="#6195F8"/>
</linearGradient>
<linearGradient id="paint10_linear_38_3927" x1="126.102" y1="16.9749" x2="126.102" y2="38.8744" gradientUnits="userSpaceOnUse">
<stop stop-color="#26CED9"/>
<stop offset="1" stop-color="#6195F8"/>
</linearGradient>
<linearGradient id="paint11_linear_38_3927" x1="126.102" y1="16.9749" x2="126.102" y2="38.8745" gradientUnits="userSpaceOnUse">
<stop stop-color="#26CED9"/>
<stop offset="1" stop-color="#6195F8"/>
</linearGradient>
<linearGradient id="paint12_linear_38_3927" x1="126.102" y1="16.9749" x2="126.102" y2="38.8744" gradientUnits="userSpaceOnUse">
<stop stop-color="#26CED9"/>
<stop offset="1" stop-color="#6195F8"/>
</linearGradient>
<linearGradient id="paint13_linear_38_3927" x1="126.102" y1="16.9749" x2="126.102" y2="38.8744" gradientUnits="userSpaceOnUse">
<stop stop-color="#26CED9"/>
<stop offset="1" stop-color="#6195F8"/>
</linearGradient>
</defs>
</svg>
